<svg width="157" height="157" viewBox="0 0 157 157" fill="none" xmlns="http://www.w3.org/2000/svg">
<g filter="url(#filter0_d)">
<circle cx="73.5" cy="73.5" r="58.5" fill="white"/>
</g>
<path d="M70.7 95.6V96.6H71.7V95.6H70.7ZM70.7 50H71.7V48.2117L70.1764 49.148L70.7 50ZM61.1 55.9L61.5961 56.7682L61.61 56.7603L61.6236 56.752L61.1 55.9ZM55 54.9L54.2106 55.5139L54.221 55.5272L54.2318 55.5402L55 54.9ZM56.2 46.4L56.7241 47.2517L56.7265 47.2501L56.2 46.4ZM71.7 36.8L71.1855 35.9424L71.1735 35.9498L71.7 36.8ZM81.9 36.7L81.1929 37.4071L81.1929 37.4071L81.9 36.7ZM83.6 95.6H82.6V96.6H83.6V95.6ZM94.1 96.6C95.982 96.6 97.207 97.0034 97.9524 97.6369C98.6666 98.2441 99.1 99.2005 99.1 100.7H101.1C101.1 98.7995 100.533 97.2059 99.2477 96.1131C97.993 95.0466 96.218 94.6 94.1 94.6V96.6ZM99.1 100.7C99.1 102.278 98.6591 103.289 97.938 103.926C97.1932 104.583 95.9743 105 94.1 105V107C96.2257 107 98.0068 106.533 99.262 105.424C100.541 104.295 101.1 102.655 101.1 100.7H99.1ZM94.1 105H60.3V107H94.1V105ZM60.3 105C58.389 105 57.1425 104.582 56.3809 103.92C55.6461 103.282 55.2 102.273 55.2 100.7H53.2C53.2 102.66 53.7706 104.302 55.0691 105.43C56.3408 106.535 58.1443 107 60.3 107V105ZM55.2 100.7C55.2 99.2059 55.6382 98.251 56.3664 97.6422C57.1289 97.0047 58.3815 96.6 60.3 96.6V94.6C58.1518 94.6 56.3544 95.0453 55.0836 96.1078C53.7784 97.199 53.2 98.7941 53.2 100.7H55.2ZM60.3 96.6H70.7V94.6H60.3V96.6ZM71.7 95.6V50H69.7V95.6H71.7ZM70.1764 49.148L60.5764 55.048L61.6236 56.752L71.2236 50.852L70.1764 49.148ZM60.6039 55.0318C59.7559 55.5163 59.0967 55.7 58.6 55.7V57.7C59.57 57.7 60.5774 57.3504 61.5961 56.7682L60.6039 55.0318ZM58.6 55.7C57.5335 55.7 56.603 55.2616 55.7682 54.2598L54.2318 55.5402C55.397 56.9384 56.8665 57.7 58.6 57.7V55.7ZM55.7894 54.2861C54.9872 53.2547 54.6 52.1357 54.6 50.9H52.6C52.6 52.5976 53.1462 54.1453 54.2106 55.5139L55.7894 54.2861ZM54.6 50.9C54.6 49.3356 55.2676 48.148 56.7241 47.2517L55.6759 45.5483C53.6657 46.7854 52.6 48.5978 52.6 50.9H54.6ZM56.7265 47.2501L72.2265 37.6501L71.1735 35.9498L55.6735 45.5499L56.7265 47.2501ZM72.2145 37.6575C74.1041 36.5237 75.8274 36 77.4 36V34C75.3726 34 73.2959 34.6763 71.1855 35.9425L72.2145 37.6575ZM77.4 36C79.0486 36 80.278 36.4922 81.1929 37.4071L82.6071 35.9929C81.2553 34.6411 79.4847 34 77.4 34V36ZM81.1929 37.4071C82.0947 38.3089 82.6 39.5957 82.6 41.4H84.6C84.6 39.2042 83.972 37.3577 82.6071 35.9929L81.1929 37.4071ZM82.6 41.4V95.6H84.6V41.4H82.6ZM83.6 96.6H94.1V94.6H83.6V96.6Z" fill="#3E78FF"/>
<defs>
<filter id="filter0_d" x="0" y="0" width="157" height="157" filterUnits="userSpaceOnUse" color-interpolation-filters="sRGB">
<feFlood flood-opacity="0" result="BackgroundImageFix"/>
<feColorMatrix in="SourceAlpha" type="matrix" values="0 0 0 0 0 0 0 0 0 0 0 0 0 0 0 0 0 0 127 0"/>
<feOffset dx="5" dy="5"/>
<feGaussianBlur stdDeviation="10"/>
<feColorMatrix type="matrix" values="0 0 0 0 0 0 0 0 0 0 0 0 0 0 0 0 0 0 0.1 0"/>
<feBlend mode="normal" in2="BackgroundImageFix" result="effect1_dropShadow"/>
<feBlend mode="normal" in="SourceGraphic" in2="effect1_dropShadow" result="shape"/>
</filter>
</defs>
</svg>
