<svg width="108" height="110" viewBox="0 0 108 110" fill="none" xmlns="http://www.w3.org/2000/svg">
<g filter="url(#filter0_d_2526_18)">
<path fill-rule="evenodd" clip-rule="evenodd" d="M54 90C74.9868 90 92 72.9868 92 52C92 31.0132 74.9868 12 54 12C33.0132 12 16 31.0132 16 52C16 72.9868 33.0132 90 54 90Z" fill="white"/>
</g>
<path fill-rule="evenodd" clip-rule="evenodd" d="M54 100C80.5097 100 102 78.5097 102 52C102 25.4903 80.5097 4 54 4C27.4903 4 6 25.4903 6 52C6 78.5097 27.4903 100 54 100Z" fill="white"/>
<path fill-rule="evenodd" clip-rule="evenodd" d="M56.1314 31C56.9301 31 57.4065 30.1098 56.9635 29.4453L54.832 26.248C54.4362 25.6543 53.5637 25.6543 53.1679 26.248L51.0364 29.4453C50.5934 30.1098 51.0698 31 51.8685 31L56.1314 31ZM30 38C30 35.7908 31.7908 34 34 34H74C76.2091 34 78 35.7908 78 38V66C78 68.2091 76.2091 70 74 70H34C31.7908 70 30 68.2091 30 66V38ZM81 49.8685C81 49.0698 81.8901 48.5934 82.5547 49.0364L85.7519 51.1679C86.3456 51.5637 86.3456 52.4362 85.7519 52.832L82.5547 54.9635C81.8901 55.4065 81 54.9301 81 54.1314V49.8685ZM25.4453 49.0364C26.1098 48.5934 27 49.0698 27 49.8685V54.1314C27 54.9301 26.1098 55.4065 25.4453 54.9635L22.248 52.832C21.6543 52.4362 21.6543 51.5637 22.248 51.1679L25.4453 49.0364ZM56.9635 74.5547C57.4065 73.8901 56.9301 73 56.1314 73H51.8685C51.0698 73 50.5934 73.8901 51.0364 74.5547L53.1679 77.7519C53.5637 78.3456 54.4362 78.3456 54.832 77.7519L56.9635 74.5547Z" fill="url(#paint0_linear_2526_18)"/>
<path fill-rule="evenodd" clip-rule="evenodd" d="M37 39C37 40.1046 36.1046 41 35 41C33.8954 41 33 40.1046 33 39C33 37.8954 33.8954 37 35 37C36.1046 37 37 37.8954 37 39ZM43 39C43 40.1046 42.1046 41 41 41C39.8954 41 39 40.1046 39 39C39 37.8954 39.8954 37 41 37C42.1046 37 43 37.8954 43 39ZM47 41C48.1046 41 49 40.1046 49 39C49 37.8954 48.1046 37 47 37C45.8954 37 45 37.8954 45 39C45 40.1046 45.8954 41 47 41Z" fill="white"/>
<rect x="33" y="43" width="42" height="24" rx="2" fill="url(#paint1_linear_2526_18)"/>
<defs>
<filter id="filter0_d_2526_18" x="0" y="0" width="108" height="110" filterUnits="userSpaceOnUse" color-interpolation-filters="sRGB">
<feFlood flood-opacity="0" result="BackgroundImageFix"/>
<feColorMatrix in="SourceAlpha" type="matrix" values="0 0 0 0 0 0 0 0 0 0 0 0 0 0 0 0 0 0 127 0" result="hardAlpha"/>
<feOffset dy="4"/>
<feGaussianBlur stdDeviation="8"/>
<feColorMatrix type="matrix" values="0 0 0 0 0.243137 0 0 0 0 0.470588 0 0 0 0 1 0 0 0 1 0"/>
<feBlend mode="normal" in2="BackgroundImageFix" result="effect1_dropShadow_2526_18"/>
<feBlend mode="normal" in="SourceGraphic" in2="effect1_dropShadow_2526_18" result="shape"/>
</filter>
<linearGradient id="paint0_linear_2526_18" x1="21.8027" y1="78.1972" x2="73.1024" y2="15.1482" gradientUnits="userSpaceOnUse">
<stop stop-color="#3E78FF"/>
<stop offset="1" stop-color="#96B6FF"/>
</linearGradient>
<linearGradient id="paint1_linear_2526_18" x1="54" y1="43" x2="54" y2="67" gradientUnits="userSpaceOnUse">
<stop stop-color="white" stop-opacity="0.8"/>
<stop offset="1" stop-color="white" stop-opacity="0.48"/>
</linearGradient>
</defs>
</svg>
