<svg width="157" height="157" viewBox="0 0 157 157" fill="none" xmlns="http://www.w3.org/2000/svg">
<g filter="url(#filter0_d)">
<circle cx="73.5" cy="73.5" r="58.5" fill="white"/>
</g>
<path d="M51.7 104.5L50.9705 105.184L50.9815 105.196L50.9929 105.207L51.7 104.5ZM52.5 95.2L53.222 95.8919L53.2271 95.8866L53.232 95.8813L52.5 95.2ZM75.3 70.7L76.0321 71.3813L76.0385 71.3743L75.3 70.7ZM81.4 62.3L80.5101 61.8437L80.5056 61.8528L81.4 62.3ZM65 46.5L65.3672 47.4302L65.3796 47.4252L65 46.5ZM57.3 50.7L56.7308 49.8778L56.7265 49.8808L57.3 50.7ZM55.3 51.9L55.6714 52.8285L55.71 52.813L55.7472 52.7944L55.3 51.9ZM50.3 50.7L49.5 51.3L49.5116 51.3155L49.5239 51.3306L50.3 50.7ZM49.6 44.3L48.7221 43.8211L48.7047 43.8531L48.6896 43.8862L49.6 44.3ZM51.4 42.2L50.7775 41.4174L50.7686 41.4245L50.7598 41.4318L51.4 42.2ZM61.7 36.7L62.021 37.6471L62.0282 37.6446L62.0353 37.6421L61.7 36.7ZM89.9 39.8L89.2512 40.561L89.2574 40.5662L89.9 39.8ZM93.5 65.3L94.3978 65.7404L94.401 65.7338L93.5 65.3ZM84.7 77.2L85.4285 77.885L85.4288 77.8847L84.7 77.2ZM67.4 95.6L66.6715 94.915L65.0872 96.6H67.4V95.6ZM93.8 96.6C95.682 96.6 96.907 97.0034 97.6524 97.6369C98.3666 98.2441 98.8 99.2005 98.8 100.7H100.8C100.8 98.7995 100.233 97.2059 98.9477 96.1131C97.693 95.0466 95.918 94.6 93.8 94.6V96.6ZM98.8 100.7C98.8 102.278 98.3591 103.289 97.638 103.926C96.8932 104.583 95.6743 105 93.8 105V107C95.9257 107 97.7068 106.533 98.962 105.424C100.241 104.295 100.8 102.655 100.8 100.7H98.8ZM93.8 105H55.8V107H93.8V105ZM55.8 105C54.2683 105 53.1789 104.565 52.4071 103.793L50.9929 105.207C52.2211 106.435 53.8651 107 55.8 107V105ZM52.4295 103.816C51.6124 102.944 51.2 101.893 51.2 100.6H49.2C49.2 102.374 49.7876 103.922 50.9705 105.184L52.4295 103.816ZM51.2 100.6C51.2 98.8867 51.8461 97.3276 53.222 95.8919L51.778 94.5081C50.0873 96.2724 49.2 98.3133 49.2 100.6H51.2ZM53.232 95.8813L76.0321 71.3813L74.568 70.0187L51.768 94.5187L53.232 95.8813ZM76.0385 71.3743C78.8746 68.2681 80.9722 65.3917 82.2944 62.7472L80.5056 61.8528C79.2945 64.275 77.3254 66.9986 74.5615 70.0257L76.0385 71.3743ZM82.2898 62.7563C83.6844 60.0368 84.4 57.3148 84.4 54.6H82.4C82.4 56.9519 81.7823 59.3632 80.5102 61.8437L82.2898 62.7563ZM84.4 54.6C84.4 51.2701 83.4371 48.5715 81.3794 46.6662L80.0206 48.1338C81.5629 49.5618 82.4 51.6632 82.4 54.6H84.4ZM81.3794 46.6662C79.3368 44.7749 76.4936 43.9 73 43.9V45.9C76.1731 45.9 78.4632 46.6917 80.0206 48.1338L81.3794 46.6662ZM73 43.9C70.1328 43.9 67.3374 44.4602 64.6204 45.5748L65.3796 47.4252C67.8626 46.4065 70.4005 45.9 73 45.9V43.9ZM64.6328 45.5698C62.0179 46.602 59.3839 48.041 56.7308 49.8778L57.8692 51.5222C60.4161 49.759 62.9154 48.3979 65.3672 47.4302L64.6328 45.5698ZM56.7265 49.8808C56.0964 50.3218 55.4718 50.6961 54.8528 51.0056L55.7472 52.7944C56.4615 52.4373 57.1702 52.0115 57.8735 51.5192L56.7265 49.8808ZM54.9286 50.9715C54.3709 51.1946 53.8299 51.3 53.3 51.3V53.3C54.1034 53.3 54.8958 53.1387 55.6714 52.8285L54.9286 50.9715ZM53.3 51.3C52.532 51.3 51.7975 50.9573 51.0761 50.0694L49.5239 51.3306C50.5358 52.5761 51.8013 53.3 53.3 53.3V51.3ZM51.1 50.1C50.4429 49.2238 50.1 48.1731 50.1 46.9H48.1C48.1 48.5602 48.5571 50.0428 49.5 51.3L51.1 50.1ZM50.1 46.9C50.1 46.0092 50.2486 45.2898 50.5104 44.7138L48.6896 43.8862C48.2848 44.7769 48.1 45.7908 48.1 46.9H50.1ZM50.4779 44.7788C50.8047 44.1796 51.3139 43.5734 52.0402 42.9682L50.7598 41.4318C49.8861 42.1599 49.1953 42.9537 48.7221 43.8211L50.4779 44.7788ZM52.0225 42.9826C54.8564 40.7284 58.1852 38.9474 62.021 37.6471L61.379 35.7529C57.3481 37.1193 53.8103 39.0049 50.7775 41.4174L52.0225 42.9826ZM62.0353 37.6421C65.8677 36.278 69.6878 35.6 73.5 35.6V33.6C69.4455 33.6 65.399 34.3219 61.3647 35.7579L62.0353 37.6421ZM73.5 35.6C80.1982 35.6 85.4121 37.2883 89.2513 40.561L90.5487 39.039C86.2546 35.3784 80.5352 33.6 73.5 33.6V35.6ZM89.2574 40.5662C93.1426 43.8248 95.1 48.1996 95.1 53.8H97.1C97.1 47.667 94.9241 42.7086 90.5426 39.0338L89.2574 40.5662ZM95.1 53.8C95.1 57.7192 94.266 61.404 92.599 64.8662L94.401 65.7338C96.2007 61.996 97.1 58.0141 97.1 53.8H95.1ZM92.6022 64.8596C90.9295 68.2693 88.0686 72.1535 83.9712 76.5153L85.4288 77.8847C89.5981 73.4465 92.6038 69.3974 94.3978 65.7404L92.6022 64.8596ZM83.9715 76.515L66.6715 94.915L68.1285 96.285L85.4285 77.885L83.9715 76.515ZM67.4 96.6H93.8V94.6H67.4V96.6Z" fill="#3E78FF"/>
<defs>
<filter id="filter0_d" x="0" y="0" width="157" height="157" filterUnits="userSpaceOnUse" color-interpolation-filters="sRGB">
<feFlood flood-opacity="0" result="BackgroundImageFix"/>
<feColorMatrix in="SourceAlpha" type="matrix" values="0 0 0 0 0 0 0 0 0 0 0 0 0 0 0 0 0 0 127 0"/>
<feOffset dx="5" dy="5"/>
<feGaussianBlur stdDeviation="10"/>
<feColorMatrix type="matrix" values="0 0 0 0 0 0 0 0 0 0 0 0 0 0 0 0 0 0 0.1 0"/>
<feBlend mode="normal" in2="BackgroundImageFix" result="effect1_dropShadow"/>
<feBlend mode="normal" in="SourceGraphic" in2="effect1_dropShadow" result="shape"/>
</filter>
</defs>
</svg>
