<svg width="108" height="110" viewBox="0 0 108 110" fill="none" xmlns="http://www.w3.org/2000/svg">
<g filter="url(#filter0_d_2526_33)">
<path fill-rule="evenodd" clip-rule="evenodd" d="M54 90C74.9868 90 92 72.9868 92 52C92 31.0132 74.9868 12 54 12C33.0132 12 16 31.0132 16 52C16 72.9868 33.0132 90 54 90Z" fill="white"/>
</g>
<path fill-rule="evenodd" clip-rule="evenodd" d="M54 100C80.5097 100 102 78.5097 102 52C102 25.4903 80.5097 4 54 4C27.4903 4 6 25.4903 6 52C6 78.5097 27.4903 100 54 100Z" fill="white"/>
<circle cx="54" cy="52" r="24" fill="url(#paint0_linear_2526_33)"/>
<path fill-rule="evenodd" clip-rule="evenodd" d="M70.7985 53.6093C68.1973 56.8807 61.6569 64 53.9998 64C46.3427 64 39.8023 56.8807 37.2011 53.6093C36.4427 52.6555 36.4427 51.3445 37.2011 50.3907C39.8023 47.1193 46.3427 40 53.9998 40C61.6569 40 68.1973 47.1193 70.7985 50.3907C71.5568 51.3445 71.5568 52.6555 70.7985 53.6093ZM59.9998 52C59.9998 55.3137 57.3135 58 53.9998 58C50.6861 58 47.9998 55.3137 47.9998 52C47.9998 48.6863 50.6861 46 53.9998 46C57.3135 46 59.9998 48.6863 59.9998 52Z" fill="url(#paint1_linear_2526_33)"/>
<defs>
<filter id="filter0_d_2526_33" x="0" y="0" width="108" height="110" filterUnits="userSpaceOnUse" color-interpolation-filters="sRGB">
<feFlood flood-opacity="0" result="BackgroundImageFix"/>
<feColorMatrix in="SourceAlpha" type="matrix" values="0 0 0 0 0 0 0 0 0 0 0 0 0 0 0 0 0 0 127 0" result="hardAlpha"/>
<feOffset dy="4"/>
<feGaussianBlur stdDeviation="8"/>
<feColorMatrix type="matrix" values="0 0 0 0 0.243137 0 0 0 0 0.470588 0 0 0 0 1 0 0 0 1 0"/>
<feBlend mode="normal" in2="BackgroundImageFix" result="effect1_dropShadow_2526_33"/>
<feBlend mode="normal" in="SourceGraphic" in2="effect1_dropShadow_2526_33" result="shape"/>
</filter>
<linearGradient id="paint0_linear_2526_33" x1="30" y1="76" x2="78" y2="28" gradientUnits="userSpaceOnUse">
<stop stop-color="#3E78FF"/>
<stop offset="1" stop-color="#96B6FF"/>
</linearGradient>
<linearGradient id="paint1_linear_2526_33" x1="36.6323" y1="40" x2="36.6323" y2="64" gradientUnits="userSpaceOnUse">
<stop stop-color="white"/>
<stop offset="1" stop-color="white" stop-opacity="0.48"/>
</linearGradient>
</defs>
</svg>
