<svg width="157" height="157" viewBox="0 0 157 157" fill="none" xmlns="http://www.w3.org/2000/svg">
<g filter="url(#filter0_d)">
<circle cx="73.5" cy="73.5" r="58.5" fill="white"/>
</g>
<path d="M84.8 69.8L84.4469 68.8644L81.4728 69.9867L84.5538 70.7692L84.8 69.8ZM94.4 75.9L93.5936 76.4914L93.601 76.5015L93.6087 76.5114L94.4 75.9ZM91.1 101.4L90.4725 100.621L90.4725 100.621L91.1 101.4ZM60.5 104.8L60.1838 105.749L60.5 104.8ZM50.3 99.2L49.6438 99.9546L49.6492 99.9593L50.3 99.2ZM49.2 90.8L48.4239 90.1694L48.4191 90.1753L49.2 90.8ZM54 89.6L53.5528 90.4944L53.5997 90.5179L53.6489 90.5363L54 89.6ZM56.2 90.7L56.7547 89.8679L56.726 89.8488L56.6961 89.8318L56.2 90.7ZM64.2 95L64.5672 94.0698L64.5672 94.0698L64.2 95ZM82.3 93.9L82.9306 94.6761L82.9378 94.6703L82.9449 94.6643L82.3 93.9ZM82.1 78L81.4811 78.7855L81.4942 78.7958L81.5076 78.8057L82.1 78ZM62.5 73.9L61.7 74.5L61.7212 74.5282L61.7443 74.5549L62.5 73.9ZM62.5 66.7L61.7443 66.0451L61.7314 66.0599L61.7191 66.0753L62.5 66.7ZM80.9 47.5L81.5675 46.7554L81.5675 46.7554L80.9 47.5ZM57.3 50.7L57.7961 51.5682L57.8356 51.5457L57.8728 51.5197L57.3 50.7ZM55.1 51.9L55.4511 52.8363L55.5003 52.8179L55.5472 52.7944L55.1 51.9ZM50.3 50.7L49.5 51.3L49.5212 51.3282L49.5443 51.3549L50.3 50.7ZM49.6 44.4L48.7221 43.9211L48.7136 43.9368L48.7056 43.9528L49.6 44.4ZM51.4 42.2L50.7598 41.4318L50.7417 41.4469L50.7243 41.4628L51.4 42.2ZM61.4 36.7L61.726 37.6454L61.7353 37.6421L61.4 36.7ZM89.9 39.7L89.2586 40.4672L89.2647 40.4723L89.9 39.7ZM96.1 53.3L97.0999 53.3172L97.1 53.3086V53.3H96.1ZM93 63.5L92.1738 62.9367L92.1709 62.9409L93 63.5ZM84.5538 70.7692C88.5678 71.7887 91.5529 73.7085 93.5936 76.4914L95.2064 75.3086C92.8471 72.0915 89.4322 69.9447 85.0462 68.8308L84.5538 70.7692ZM93.6087 76.5114C95.716 79.2385 96.8 82.6785 96.8 86.9H98.8C98.8 82.3215 97.6173 78.4281 95.1913 75.2885L93.6087 76.5114ZM96.8 86.9C96.8 92.6842 94.6884 97.2235 90.4725 100.621L91.7275 102.179C96.4449 98.3765 98.8 93.2491 98.8 86.9H96.8ZM90.4725 100.621C86.234 104.037 80.4461 105.8 73 105.8V107.8C80.7539 107.8 87.0327 105.963 91.7275 102.179L90.4725 100.621ZM73 105.8C68.7711 105.8 64.7114 105.15 60.8162 103.851L60.1838 105.749C64.2886 107.117 68.5622 107.8 73 107.8V105.8ZM60.8162 103.851C56.9215 102.553 53.6395 100.745 50.9508 98.4407L49.6492 99.9593C52.5605 102.455 56.0785 104.38 60.1838 105.749L60.8162 103.851ZM50.9562 98.4454C49.6099 97.2747 49 95.9714 49 94.5H47C47 96.6286 47.9235 98.4587 49.6438 99.9546L50.9562 98.4454ZM49 94.5C49 93.2257 49.343 92.2221 49.9809 91.4247L48.4191 90.1753C47.457 91.3779 47 92.841 47 94.5H49ZM49.9761 91.4306C50.6975 90.5427 51.432 90.2 52.2 90.2V88.2C50.7013 88.2 49.4358 88.9239 48.4239 90.1694L49.9761 91.4306ZM52.2 90.2C52.7299 90.2 53.174 90.305 53.5528 90.4944L54.4472 88.7056C53.7594 88.3616 53.0034 88.2 52.2 88.2V90.2ZM53.6489 90.5363C54.106 90.7077 54.7839 91.0425 55.7039 91.5682L56.6961 89.8318C55.7494 89.2908 54.9607 88.8923 54.3511 88.6637L53.6489 90.5363ZM55.6453 91.532C58.491 93.4292 61.2204 94.8989 63.8328 95.9302L64.5672 94.0698C62.1129 93.1011 59.509 91.7042 56.7547 89.8679L55.6453 91.532ZM63.8328 95.9302C66.4944 96.9808 69.3871 97.5 72.5 97.5V95.5C69.6129 95.5 66.9723 95.0192 64.5672 94.0698L63.8328 95.9302ZM72.5 97.5C77.0007 97.5 80.5396 96.6188 82.9306 94.6761L81.6694 93.1239C79.7937 94.6479 76.7993 95.5 72.5 95.5V97.5ZM82.9449 94.6643C85.3652 92.6222 86.5 89.6029 86.5 85.8H84.5C84.5 89.1971 83.5015 91.5778 81.6551 93.1357L82.9449 94.6643ZM86.5 85.8C86.5 82.039 85.2804 79.0973 82.6924 77.1943L81.5076 78.8057C83.4529 80.236 84.5 82.4943 84.5 85.8H86.5ZM82.7189 77.2145C80.2588 75.2763 76.5542 74.4 71.8 74.4V76.4C76.3791 76.4 79.5412 77.2571 81.4811 78.7855L82.7189 77.2145ZM71.8 74.4H66.1V76.4H71.8V74.4ZM66.1 74.4C64.8057 74.4 63.9014 73.9901 63.2557 73.2451L61.7443 74.5549C62.8319 75.8099 64.3276 76.4 66.1 76.4V74.4ZM63.3 73.3C62.6298 72.4064 62.3 71.417 62.3 70.3H60.3C60.3 71.8497 60.7702 73.2602 61.7 74.5L63.3 73.3ZM62.3 70.3C62.3 69.1045 62.6362 68.1305 63.2809 67.3247L61.7191 66.0753C60.7638 67.2695 60.3 68.6955 60.3 70.3H62.3ZM63.2557 67.3549C63.9014 66.6099 64.8057 66.2 66.1 66.2V64.2C64.3276 64.2 62.8319 64.7901 61.7443 66.0451L63.2557 67.3549ZM66.1 66.2H70.1V64.2H66.1V66.2ZM70.1 66.2C74.7632 66.2 78.4431 65.3286 80.9759 63.4243C83.5625 61.4797 84.8 58.5764 84.8 54.9H82.8C82.8 58.0902 81.7542 60.337 79.7741 61.8257C77.7403 63.3548 74.5701 64.2 70.1 64.2V66.2ZM84.8 54.9C84.8 51.4872 83.7603 48.7213 81.5675 46.7554L80.2325 48.2446C81.9064 49.7453 82.8 51.9128 82.8 54.9H84.8ZM81.5675 46.7554C79.4 44.8121 76.4684 43.9 72.9 43.9V45.9C76.1316 45.9 78.5334 46.7212 80.2325 48.2446L81.5675 46.7554ZM72.9 43.9C67.763 43.9 62.3653 45.9404 56.7272 49.8803L57.8728 51.5197C63.3013 47.7263 68.3037 45.9 72.9 45.9V43.9ZM56.8039 49.8318C55.8761 50.3619 55.1614 50.7512 54.6528 51.0056L55.5472 52.7944C56.1052 52.5154 56.8573 52.1047 57.7961 51.5682L56.8039 49.8318ZM54.7489 50.9637C54.3452 51.1151 53.8668 51.2 53.3 51.2V53.2C54.0665 53.2 54.7882 53.0849 55.4511 52.8363L54.7489 50.9637ZM53.3 51.2C52.5064 51.2 51.7676 50.8665 51.0557 50.0451L49.5443 51.3549C50.5657 52.5335 51.8269 53.2 53.3 53.2V51.2ZM51.1 50.1C50.4429 49.2238 50.1 48.1731 50.1 46.9H48.1C48.1 48.5602 48.5571 50.0428 49.5 51.3L51.1 50.1ZM50.1 46.9C50.1 46.0046 50.2501 45.3359 50.4944 44.8472L48.7056 43.9528C48.2833 44.7974 48.1 45.7953 48.1 46.9H50.1ZM50.4779 44.8788C50.8121 44.2662 51.3339 43.6171 52.0757 42.9372L50.7243 41.4628C49.8661 42.2495 49.1879 43.0672 48.7221 43.9211L50.4779 44.8788ZM52.0402 42.9682C54.7364 40.7214 57.96 38.944 61.726 37.6454L61.074 35.7546C57.1067 37.1227 53.6636 39.0119 50.7598 41.4318L52.0402 42.9682ZM61.7353 37.6421C65.5639 36.2794 69.4506 35.6 73.4 35.6V33.6C69.216 33.6 65.1027 34.3206 61.0647 35.7579L61.7353 37.6421ZM73.4 35.6C80.172 35.6 85.421 37.2587 89.2586 40.4672L90.5414 38.9328C86.2457 35.3413 80.4946 33.6 73.4 33.6V35.6ZM89.2647 40.4723C93.152 43.6699 95.1 47.9122 95.1 53.3H97.1C97.1 47.3545 94.9147 42.5301 90.5353 38.9277L89.2647 40.4723ZM95.1002 53.2828C95.0365 56.9725 94.0541 60.1789 92.1738 62.9367L93.8262 64.0633C95.9459 60.9544 97.0301 57.3608 97.0999 53.3172L95.1002 53.2828ZM92.1709 62.9409C90.3642 65.6198 87.8052 67.5971 84.4469 68.8644L85.1531 70.7356C88.8615 69.3362 91.7692 67.1135 93.8291 64.0591L92.1709 62.9409Z" fill="#3E78FF"/>
<defs>
<filter id="filter0_d" x="0" y="0" width="157" height="157" filterUnits="userSpaceOnUse" color-interpolation-filters="sRGB">
<feFlood flood-opacity="0" result="BackgroundImageFix"/>
<feColorMatrix in="SourceAlpha" type="matrix" values="0 0 0 0 0 0 0 0 0 0 0 0 0 0 0 0 0 0 127 0"/>
<feOffset dx="5" dy="5"/>
<feGaussianBlur stdDeviation="10"/>
<feColorMatrix type="matrix" values="0 0 0 0 0 0 0 0 0 0 0 0 0 0 0 0 0 0 0.1 0"/>
<feBlend mode="normal" in2="BackgroundImageFix" result="effect1_dropShadow"/>
<feBlend mode="normal" in="SourceGraphic" in2="effect1_dropShadow" result="shape"/>
</filter>
</defs>
</svg>
