<svg width="157" height="157" viewBox="0 0 157 157" fill="none" xmlns="http://www.w3.org/2000/svg">
<g filter="url(#filter0_d)">
<circle cx="73.5" cy="73.5" r="58.5" fill="white"/>
</g>
<path d="M97 83.5L97.6549 82.7443L97.6549 82.7443L97 83.5ZM87.4 92.2V91.2H86.4V92.2H87.4ZM85.6 104.9L84.9134 104.173L84.903 104.183L84.8929 104.193L85.6 104.9ZM76.5 104.9L75.7929 105.607L75.803 105.617L75.8134 105.627L76.5 104.9ZM74.8 92.2H75.8V91.2H74.8V92.2ZM44.4 90.7L43.6705 91.3839L43.6815 91.3957L43.6929 91.4071L44.4 90.7ZM44.5 82.2L45.3087 82.7882L45.3149 82.7798L45.3208 82.7712L44.5 82.2ZM75.4 37.8L74.5862 37.2187L74.5792 37.2288L75.4 37.8ZM77.9 35.7L78.3229 36.6062L78.3471 36.5949L78.3706 36.5824L77.9 35.7ZM85.5 36.6L84.8332 37.3452L84.8332 37.3452L85.5 36.6ZM87.4 82.2H86.4V83.2H87.4V82.2ZM56.2 82.2L55.3775 81.6313L54.2928 83.2H56.2V82.2ZM74.8 82.2V83.2H75.8V82.2H74.8ZM74.8 55.3H75.8V52.0955L73.9775 54.7313L74.8 55.3ZM92.5 83.2C94.3782 83.2 95.6001 83.61 96.3451 84.2557L97.6549 82.7443C96.3999 81.6567 94.6219 81.2 92.5 81.2V83.2ZM96.3451 84.2557C97.0803 84.8929 97.5 85.8237 97.5 87.2H99.5C99.5 85.3763 98.9197 83.8404 97.6549 82.7443L96.3451 84.2557ZM97.5 87.2C97.5 88.6597 97.0708 89.5893 96.3598 90.1818C95.6139 90.8034 94.3858 91.2 92.5 91.2V93.2C94.6142 93.2 96.3861 92.7633 97.6402 91.7182C98.9292 90.644 99.5 89.0736 99.5 87.2H97.5ZM92.5 91.2H87.4V93.2H92.5V91.2ZM86.4 92.2V100.1H88.4V92.2H86.4ZM86.4 100.1C86.4 101.965 85.8653 103.274 84.9134 104.173L86.2866 105.627C87.7347 104.259 88.4 102.368 88.4 100.1H86.4ZM84.8929 104.193C83.978 105.108 82.7486 105.6 81.1 105.6V107.6C83.1847 107.6 84.9553 106.959 86.3071 105.607L84.8929 104.193ZM81.1 105.6C79.4526 105.6 78.1763 105.108 77.1866 104.173L75.8134 105.627C77.2237 106.959 79.0141 107.6 81.1 107.6V105.6ZM77.2071 104.193C76.3113 103.297 75.8 101.982 75.8 100.1H73.8C73.8 102.352 74.422 104.236 75.7929 105.607L77.2071 104.193ZM75.8 100.1V92.2H73.8V100.1H75.8ZM74.8 91.2H48.6V93.2H74.8V91.2ZM48.6 91.2C46.9893 91.2 45.8719 90.7577 45.1071 89.9929L43.6929 91.4071C44.9281 92.6423 46.6107 93.2 48.6 93.2V91.2ZM45.1295 90.0161C44.3124 89.1445 43.9 88.0929 43.9 86.8H41.9C41.9 88.5738 42.4876 90.1222 43.6705 91.3839L45.1295 90.0161ZM43.9 86.8C43.9 85.439 44.3491 84.1077 45.3087 82.7882L43.6913 81.6118C42.5176 83.2256 41.9 84.961 41.9 86.8H43.9ZM45.3208 82.7712L76.2208 38.3712L74.5792 37.2288L43.6792 81.6288L45.3208 82.7712ZM76.2137 38.3812C76.7844 37.5823 77.4853 36.9971 78.3229 36.6062L77.4771 34.7938C76.3147 35.3363 75.349 36.151 74.5863 37.2188L76.2137 38.3812ZM78.3706 36.5824C79.2351 36.1213 80.1077 35.9 81 35.9V33.9C79.7589 33.9 78.5649 34.212 77.4294 34.8176L78.3706 36.5824ZM81 35.9C82.4927 35.9 83.7539 36.3795 84.8332 37.3452L86.1668 35.8548C84.7128 34.5538 82.974 33.9 81 33.9V35.9ZM84.8332 37.3452C85.8428 38.2485 86.4 39.5512 86.4 41.4H88.4C88.4 39.1155 87.6906 37.2181 86.1668 35.8548L84.8332 37.3452ZM86.4 41.4V82.2H88.4V41.4H86.4ZM87.4 83.2H92.5V81.2H87.4V83.2ZM56.2 83.2H74.8V81.2H56.2V83.2ZM75.8 82.2V55.3H73.8V82.2H75.8ZM73.9775 54.7313L55.3775 81.6313L57.0225 82.7687L75.6225 55.8687L73.9775 54.7313Z" fill="#3E78FF"/>
<defs>
<filter id="filter0_d" x="0" y="0" width="157" height="157" filterUnits="userSpaceOnUse" color-interpolation-filters="sRGB">
<feFlood flood-opacity="0" result="BackgroundImageFix"/>
<feColorMatrix in="SourceAlpha" type="matrix" values="0 0 0 0 0 0 0 0 0 0 0 0 0 0 0 0 0 0 127 0"/>
<feOffset dx="5" dy="5"/>
<feGaussianBlur stdDeviation="10"/>
<feColorMatrix type="matrix" values="0 0 0 0 0 0 0 0 0 0 0 0 0 0 0 0 0 0 0.1 0"/>
<feBlend mode="normal" in2="BackgroundImageFix" result="effect1_dropShadow"/>
<feBlend mode="normal" in="SourceGraphic" in2="effect1_dropShadow" result="shape"/>
</filter>
</defs>
</svg>
