<svg width="157" height="157" viewBox="0 0 157 157" fill="none" xmlns="http://www.w3.org/2000/svg">
<g filter="url(#filter0_d)">
<circle cx="73.5" cy="73.5" r="58.5" fill="white"/>
</g>
<path d="M89.3 63.8L88.7983 64.665L88.8084 64.6709L88.8187 64.6766L89.3 63.8ZM96.8 95.6L95.9439 95.0831L95.9368 95.0951L96.8 95.6ZM87.9 103.9L88.3535 104.791L88.3594 104.788L87.9 103.9ZM62.5 104.8L62.1647 105.742L62.1742 105.745L62.1838 105.749L62.5 104.8ZM52.4 99.2L51.7438 99.9546L51.7517 99.9615L51.7598 99.9682L52.4 99.2ZM51.3 90.8L50.5239 90.1694L50.5191 90.1753L51.3 90.8ZM56.2 89.6L55.7939 90.5138L55.838 90.5334L55.8838 90.5487L56.2 89.6ZM58.3 90.7L58.8735 89.8808L58.8642 89.8743L58.8547 89.868L58.3 90.7ZM66.1 95L66.4672 94.0698L66.1 95ZM84.3 93.2L84.986 93.9276L84.3 93.2ZM84.2 74.5L83.4929 75.2071L83.503 75.2172L83.5134 75.227L84.2 74.5ZM67.5 72.1L67.1656 71.1575L67.1557 71.1611L67.5 72.1ZM61.3 75.8L61.8647 76.6253L61.8987 76.6021L61.9306 76.5761L61.3 75.8ZM54 75.9L54.6508 75.1407H54.6508L54 75.9ZM54.2 37.1L54.9071 37.8071H54.9071L54.2 37.1ZM65.2 45.5V44.5H64.2V45.5H65.2ZM65.2 64.5H64.2V66.4299L65.7767 65.317L65.2 64.5ZM77.7 61.9C81.9492 61.9 85.6379 62.832 88.7983 64.665L89.8017 62.935C86.2954 60.9013 82.2508 59.9 77.7 59.9V61.9ZM88.8187 64.6766C92.0521 66.4517 94.5483 68.9479 96.3234 72.1813L98.0766 71.2187C96.1184 67.6521 93.3479 64.8816 89.7813 62.9234L88.8187 64.6766ZM96.3234 72.1813C98.0988 75.4149 99 79.1453 99 83.4H101C101 78.8547 100.035 74.7851 98.0766 71.2187L96.3234 72.1813ZM99 83.4C99 87.8392 97.9726 91.7231 95.9439 95.0831L97.6561 96.1169C99.8941 92.4102 101 88.1608 101 83.4H99ZM95.9368 95.0951C93.9719 98.4545 91.1502 101.093 87.4406 103.012L88.3594 104.788C92.3831 102.707 95.4948 99.8122 97.6632 96.1049L95.9368 95.0951ZM87.4465 103.009C83.8094 104.859 79.5696 105.8 74.7 105.8V107.8C79.8304 107.8 84.3906 106.807 88.3535 104.791L87.4465 103.009ZM74.7 105.8C70.6763 105.8 66.7163 105.151 62.8162 103.851L62.1838 105.749C66.2837 107.115 70.457 107.8 74.7 107.8V105.8ZM62.8353 103.858C58.9971 102.492 55.7375 100.68 53.0402 98.4318L51.7598 99.9682C54.6625 102.387 58.1362 104.308 62.1647 105.742L62.8353 103.858ZM53.0562 98.4454C51.7099 97.2747 51.1 95.9714 51.1 94.5H49.1C49.1 96.6286 50.0235 98.4587 51.7438 99.9546L53.0562 98.4454ZM51.1 94.5C51.1 93.2257 51.443 92.2221 52.0809 91.4247L50.5191 90.1753C49.557 91.3779 49.1 92.841 49.1 94.5H51.1ZM52.0761 91.4306C52.7975 90.5427 53.532 90.2 54.3 90.2V88.2C52.8013 88.2 51.5358 88.9239 50.5239 90.1694L52.0761 91.4306ZM54.3 90.2C54.829 90.2 55.3237 90.3049 55.7939 90.5138L56.6061 88.6862C55.8763 88.3618 55.1044 88.2 54.3 88.2V90.2ZM55.8838 90.5487C56.3678 90.71 56.9851 91.0253 57.7453 91.5321L58.8547 89.868C58.0149 89.3081 57.2322 88.89 56.5162 88.6513L55.8838 90.5487ZM57.7265 91.5192C60.4453 93.4224 63.1141 94.8965 65.7328 95.9302L66.4672 94.0698C64.0192 93.1035 61.488 91.7109 58.8735 89.8808L57.7265 91.5192ZM65.7328 95.9302C68.3891 96.9787 71.2143 97.5 74.2 97.5V95.5C71.4523 95.5 68.8775 95.0213 66.4672 94.0698L65.7328 95.9302ZM74.2 97.5C78.7589 97.5 82.4073 96.3589 84.986 93.9276L83.614 92.4724C81.526 94.4411 78.4411 95.5 74.2 95.5V97.5ZM84.986 93.9276C87.5704 91.4909 88.8 88.0637 88.8 83.8H86.8C86.8 87.6696 85.6963 90.5091 83.614 92.4724L84.986 93.9276ZM88.8 83.8C88.8 79.6486 87.5246 76.2644 84.8866 73.773L83.5134 75.227C85.6754 77.2689 86.8 80.0848 86.8 83.8H88.8ZM84.9071 73.7929C82.3415 71.2273 78.8278 70 74.5 70V72C78.4388 72 81.3918 73.106 83.4929 75.2071L84.9071 73.7929ZM74.5 70C71.8067 70 69.3575 70.3798 67.1656 71.1576L67.8344 73.0424C69.7759 72.3535 71.9933 72 74.5 72V70ZM67.1557 71.1611C65.0268 71.9417 62.8649 73.24 60.6694 75.0239L61.9306 76.5761C64.0017 74.8933 65.9732 73.7249 67.8443 73.0389L67.1557 71.1611ZM60.7353 74.9747C59.6091 75.7453 58.5025 76.1 57.4 76.1V78.1C58.9641 78.1 60.4576 77.5881 61.8647 76.6253L60.7353 74.9747ZM57.4 76.1C56.2836 76.1 55.387 75.7718 54.6508 75.1407L53.3492 76.6593C54.4797 77.6282 55.8497 78.1 57.4 78.1V76.1ZM54.6508 75.1407C53.9595 74.5482 53.6 73.7694 53.6 72.7H51.6C51.6 74.2973 52.1738 75.6518 53.3492 76.6593L54.6508 75.1407ZM53.6 72.7V41.5H51.6V72.7H53.6ZM53.6 41.5C53.6 39.8318 54.0704 38.6438 54.9071 37.8071L53.4929 36.3929C52.1963 37.6895 51.6 39.4348 51.6 41.5H53.6ZM54.9071 37.8071C55.7373 36.9769 56.9536 36.5 58.7 36.5V34.5C56.5797 34.5 54.796 35.0898 53.4929 36.3929L54.9071 37.8071ZM58.7 36.5H92V34.5H58.7V36.5ZM92 36.5C93.8858 36.5 95.1139 36.8966 95.8598 37.5182C96.5708 38.1107 97 39.0403 97 40.5H99C99 38.6264 98.4292 37.056 97.1402 35.9818C95.8861 34.9367 94.1142 34.5 92 34.5V36.5ZM97 40.5C97 41.9597 96.5708 42.8893 95.8598 43.4818C95.1139 44.1034 93.8858 44.5 92 44.5V46.5C94.1142 46.5 95.8861 46.0633 97.1402 45.0182C98.4292 43.944 99 42.3736 99 40.5H97ZM92 44.5H65.2V46.5H92V44.5ZM64.2 45.5V64.5H66.2V45.5H64.2ZM65.7767 65.317C68.9785 63.0569 72.9339 61.9 77.7 61.9V59.9C72.5994 59.9 68.2215 61.1431 64.6233 63.683L65.7767 65.317Z" fill="#3E78FF"/>
<defs>
<filter id="filter0_d" x="0" y="0" width="157" height="157" filterUnits="userSpaceOnUse" color-interpolation-filters="sRGB">
<feFlood flood-opacity="0" result="BackgroundImageFix"/>
<feColorMatrix in="SourceAlpha" type="matrix" values="0 0 0 0 0 0 0 0 0 0 0 0 0 0 0 0 0 0 127 0"/>
<feOffset dx="5" dy="5"/>
<feGaussianBlur stdDeviation="10"/>
<feColorMatrix type="matrix" values="0 0 0 0 0 0 0 0 0 0 0 0 0 0 0 0 0 0 0.1 0"/>
<feBlend mode="normal" in2="BackgroundImageFix" result="effect1_dropShadow"/>
<feBlend mode="normal" in="SourceGraphic" in2="effect1_dropShadow" result="shape"/>
</filter>
</defs>
</svg>
