<svg width="113" height="18" viewBox="0 0 113 18" fill="none" xmlns="http://www.w3.org/2000/svg">
<path d="M52.1341 2.24021L47.7051 15.6339C47.545 16.1142 47.1715 16.381 46.6912 16.381C46.211 16.381 45.8374 16.0608 45.6773 15.6339L41.9954 4.48139L38.3135 15.6339C38.1534 16.1142 37.7799 16.381 37.2996 16.381C36.8194 16.381 36.4458 16.0608 36.2857 15.6339L31.8034 2.24021C31.6433 1.7066 31.9101 1.17299 32.3904 0.959539C32.8706 0.799455 33.4042 1.06626 33.5643 1.54651L37.2462 12.6457L40.8215 1.86668C40.9815 1.33307 41.4618 1.0129 41.942 1.0129C42.4223 1.0129 42.9026 1.33307 43.0626 1.86668L46.6379 12.6457L50.3198 1.54651C50.4799 1.0129 51.0135 0.746094 51.4937 0.959539C52.0807 1.11962 52.2942 1.7066 52.1341 2.24021ZM61.5257 10.7247C61.5257 11.2583 61.0989 11.7385 60.5652 11.7385H53.5215C53.8951 13.3927 55.069 14.5667 56.5098 14.5667H57.0434C57.8972 14.5667 58.7509 14.1932 59.3913 13.4995C59.7648 13.1259 60.3518 13.0726 60.7253 13.4461C61.0989 13.8196 61.0989 14.46 60.7787 14.8335C59.8182 15.9007 58.4841 16.4877 57.0967 16.4877H56.5631C53.7883 16.4877 51.6005 13.873 51.6005 10.6713C51.6005 7.46961 53.8417 4.85492 56.5631 4.85492C59.2846 4.85492 61.5257 7.46961 61.5257 10.7247ZM53.5215 9.71079H59.498C59.1245 8.05659 57.9505 6.88264 56.5098 6.88264C55.069 6.88264 53.8951 8.05659 53.5215 9.71079ZM73.1052 10.7247C73.1052 13.9263 70.864 16.5411 68.1426 16.5411C66.9686 16.5411 65.9014 16.0608 65.0476 15.2604V15.3671C65.0476 15.9007 64.6207 16.381 64.0871 16.381C63.5535 16.381 63.1266 15.9541 63.1266 15.3671V1.75996C63.1266 1.22635 63.5535 0.746094 64.0871 0.746094C64.6207 0.746094 65.0476 1.17299 65.0476 1.75996V6.13558C65.9014 5.33518 66.9686 4.85492 68.1426 4.85492C70.864 4.85492 73.1052 7.46961 73.1052 10.7247ZM71.2375 10.7247C71.2375 8.5902 69.8501 6.88264 68.1426 6.88264C66.435 6.88264 65.0476 8.5902 65.0476 10.7247C65.0476 12.8591 66.435 14.5667 68.1426 14.5667C69.8501 14.5667 71.2375 12.8058 71.2375 10.7247ZM75.7732 0.746094C75.2396 0.746094 74.8127 1.17299 74.8127 1.75996V15.4205C74.8127 15.9541 75.2396 16.4343 75.7732 16.4343C76.3069 16.4343 76.7337 16.0074 76.7337 15.4205V1.75996C76.7337 1.17299 76.3069 0.746094 75.7732 0.746094ZM79.8287 5.01501C79.2951 5.01501 78.8682 5.44188 78.8682 6.02885V15.4205C78.8682 15.9541 79.2951 16.4343 79.8287 16.4343C80.3623 16.4343 80.7892 16.0074 80.7892 15.4205V6.02885C80.7892 5.44188 80.3623 5.01501 79.8287 5.01501ZM79.8287 0.746094C79.2951 0.746094 78.8682 1.17299 78.8682 1.75996V2.34694C78.8682 2.88055 79.2951 3.3608 79.8287 3.3608C80.3623 3.3608 80.7892 2.93391 80.7892 2.34694V1.75996C80.7892 1.17299 80.3623 0.746094 79.8287 0.746094ZM91.4615 5.01501C90.9279 5.01501 90.501 5.44188 90.501 6.02885V11.3116C90.501 13.1259 89.2203 14.5667 87.6728 14.5667C86.1254 14.5667 84.8447 13.1259 84.8447 11.3116V6.02885C84.8447 5.49524 84.4178 5.01501 83.8842 5.01501C83.3506 5.01501 82.9237 5.44188 82.9237 6.02885V11.3116C82.9237 14.1932 85.0581 16.5944 87.6195 16.5944C88.6867 16.5944 89.6472 16.2209 90.4476 15.5272C90.501 16.0608 90.8745 16.4343 91.4081 16.4343C91.9418 16.4343 92.3686 16.0074 92.3686 15.4205V6.02885C92.3686 5.44188 91.9417 5.01501 91.4615 5.01501ZM106.83 4.85492C105.282 4.85492 103.895 5.65532 103.041 6.936C102.187 5.65532 100.8 4.85492 99.2523 4.85492C98.185 4.85492 97.2245 5.22845 96.4241 5.92213C96.3708 5.38852 95.9972 5.01501 95.4636 5.01501C94.93 5.01501 94.5031 5.44188 94.5031 6.02885V15.4205C94.5031 15.9541 94.93 16.4343 95.4636 16.4343C95.9972 16.4343 96.4241 16.0074 96.4241 15.4205V10.1377C96.4241 8.32339 97.7048 6.88264 99.2523 6.88264C100.8 6.88264 102.08 8.32339 102.08 10.1377V15.4205C102.08 15.9541 102.507 16.4343 103.041 16.4343C103.575 16.4343 104.001 16.0074 104.001 15.4205V10.1377C104.001 8.32339 105.282 6.88264 106.83 6.88264C108.377 6.88264 109.658 8.32339 109.658 10.1377V15.4205C109.658 15.9541 110.085 16.4343 110.618 16.4343C111.152 16.4343 111.579 16.0074 111.579 15.4205V10.1377C111.525 7.25617 109.391 4.85492 106.83 4.85492Z" fill="#165BFB"/>
<path d="M23.4258 1.06642C23.7994 0.746249 24.2796 0.746249 24.7065 1.01306C25.08 1.27986 25.2401 1.76012 25.08 2.24037L20.4376 15.6341C20.3309 16.0076 20.0107 16.2744 19.6372 16.3811C19.5305 16.4345 19.4237 16.4345 19.317 16.4345C19.0502 16.4345 18.7834 16.3278 18.57 16.1677L15.6884 13.8731C15.3149 13.553 15.2615 12.966 15.5284 12.5925C15.7952 12.2189 16.4355 12.1122 16.809 12.4324L18.9968 14.1933L22.4653 4.21474L7.63086 16.1677C7.31069 16.4345 6.93716 16.4878 6.56363 16.3811C6.1901 16.2744 5.86993 16.0076 5.76321 15.6341L1.12077 2.24037C0.960689 1.76012 1.12077 1.27986 1.4943 1.01306C1.92119 0.746249 2.40145 0.746249 2.77498 1.06642L7.47078 4.85508L12.5401 0.746249C12.8603 0.479441 13.3405 0.479441 13.6607 0.746249L16.1153 2.77398C16.4889 3.09415 16.5422 3.68113 16.2754 4.05466C15.9552 4.42819 15.3683 4.53491 14.9947 4.21474L13.0737 2.66726L8.00439 6.72271C7.68422 6.98951 7.20397 6.98951 6.8838 6.72271L3.73548 4.21474L7.20397 14.1933L23.4258 1.06642Z" fill="#165BFB"/>
</svg>
