<svg width="237" height="35" viewBox="0 0 237 35" fill="none" xmlns="http://www.w3.org/2000/svg">
<path d="M109.527 3.63284L100.029 32.3544C99.6854 33.3843 98.8841 33.9565 97.8547 33.9565C96.8248 33.9565 96.0235 33.2699 95.6802 32.3544L87.7849 8.43883L79.8891 32.3544C79.5457 33.3843 78.745 33.9565 77.7151 33.9565C76.6851 33.9565 75.8844 33.2699 75.5411 32.3544L65.9286 3.63284C65.5853 2.48855 66.1579 1.34426 67.1879 0.886551C68.2173 0.543262 69.3619 1.11541 69.7052 2.14526L77.6004 25.9464L85.2676 2.83184C85.6109 1.68755 86.6403 1.00098 87.6703 1.00098C88.7002 1.00098 89.7302 1.68755 90.0735 2.83184L97.7401 25.9464L105.636 2.14526C105.979 1.00098 107.123 0.428833 108.153 0.886551C109.412 1.22983 109.869 2.48855 109.527 3.63284ZM129.666 21.827C129.666 22.9713 128.75 24.0012 127.606 24.0012H112.501C113.302 27.5485 115.82 30.0659 118.909 30.0659H120.054C121.884 30.0659 123.716 29.2649 125.088 27.7773C125.89 26.9763 127.148 26.8619 127.95 27.6629C128.75 28.4639 128.75 29.837 128.064 30.638C126.004 32.9266 123.143 34.1853 120.168 34.1853H119.024C113.074 34.1853 108.382 28.5783 108.382 21.7126C108.382 14.8469 113.188 9.23982 119.024 9.23982C124.86 9.23982 129.666 14.8469 129.666 21.827ZM112.501 19.6529H125.318C124.516 16.1056 121.999 13.5881 118.909 13.5881C115.82 13.5881 113.302 16.1056 112.501 19.6529ZM154.497 21.827C154.497 28.6927 149.691 34.2997 143.855 34.2997C141.337 34.2997 139.049 33.2699 137.218 31.5535V31.7823C137.218 32.9266 136.303 33.9565 135.158 33.9565C134.014 33.9565 133.099 33.041 133.099 31.7823V2.60298C133.099 1.45869 134.014 0.428833 135.158 0.428833C136.303 0.428833 137.218 1.34426 137.218 2.60298V11.9861C139.049 10.2697 141.337 9.23982 143.855 9.23982C149.691 9.23982 154.497 14.8469 154.497 21.827ZM150.492 21.827C150.492 17.2499 147.517 13.5881 143.855 13.5881C140.193 13.5881 137.218 17.2499 137.218 21.827C137.218 26.4041 140.193 30.0659 143.855 30.0659C147.517 30.0659 150.492 26.2897 150.492 21.827ZM160.218 0.428833C159.074 0.428833 158.158 1.34426 158.158 2.60298V31.8967C158.158 33.041 159.074 34.0709 160.218 34.0709C161.362 34.0709 162.278 33.1554 162.278 31.8967V2.60298C162.278 1.34426 161.362 0.428833 160.218 0.428833ZM168.915 9.58314C167.77 9.58314 166.855 10.4985 166.855 11.7573V31.8967C166.855 33.041 167.77 34.0709 168.915 34.0709C170.059 34.0709 170.974 33.1554 170.974 31.8967V11.7573C170.974 10.4985 170.059 9.58314 168.915 9.58314ZM168.915 0.428833C167.77 0.428833 166.855 1.34426 166.855 2.60298V3.8617C166.855 5.00598 167.77 6.03587 168.915 6.03587C170.059 6.03587 170.974 5.12041 170.974 3.8617V2.60298C170.974 1.34426 170.059 0.428833 168.915 0.428833ZM193.861 9.58314C192.716 9.58314 191.801 10.4985 191.801 11.7573V23.0857C191.801 26.9763 189.054 30.0659 185.736 30.0659C182.417 30.0659 179.671 26.9763 179.671 23.0857V11.7573C179.671 10.613 178.755 9.58314 177.611 9.58314C176.467 9.58314 175.552 10.4985 175.552 11.7573V23.0857C175.552 29.2649 180.129 34.4142 185.621 34.4142C187.91 34.4142 189.97 33.6132 191.686 32.1256C191.801 33.2699 192.601 34.0709 193.746 34.0709C194.89 34.0709 195.806 33.1554 195.806 31.8967V11.7573C195.806 10.4985 194.89 9.58314 193.861 9.58314ZM226.816 9.23982C223.497 9.23982 220.522 10.9563 218.691 13.7025C216.86 10.9563 213.886 9.23982 210.567 9.23982C208.278 9.23982 206.218 10.0409 204.502 11.5284C204.388 10.3841 203.586 9.58314 202.442 9.58314C201.298 9.58314 200.382 10.4985 200.382 11.7573V31.8967C200.382 33.041 201.298 34.0709 202.442 34.0709C203.586 34.0709 204.502 33.1554 204.502 31.8967V20.5683C204.502 16.6777 207.248 13.5881 210.567 13.5881C213.886 13.5881 216.632 16.6777 216.632 20.5683V31.8967C216.632 33.041 217.547 34.0709 218.691 34.0709C219.836 34.0709 220.751 33.1554 220.751 31.8967V20.5683C220.751 16.6777 223.497 13.5881 226.816 13.5881C230.134 13.5881 232.881 16.6777 232.881 20.5683V31.8967C232.881 33.041 233.796 34.0709 234.94 34.0709C236.085 34.0709 237 33.1554 237 31.8967V20.5683C236.885 14.3891 232.309 9.23982 226.816 9.23982Z" fill="white"/>
<path d="M47.9638 1.11568C48.7648 0.429108 49.7947 0.429108 50.71 1.00125C51.5111 1.57339 51.8544 2.60325 51.5111 3.63311L41.5558 32.3547C41.3269 33.1557 40.6403 33.7279 39.8393 33.9568C39.6105 34.0712 39.3816 34.0712 39.1528 34.0712C38.5806 34.0712 38.0084 33.8423 37.5508 33.499L31.3716 28.5786C30.5706 27.892 30.4562 26.6333 31.0283 25.8323C31.6005 25.0313 32.9736 24.8024 33.7746 25.489L38.4662 29.2652L45.9041 7.86697L14.0929 33.499C13.4063 34.0712 12.6053 34.1856 11.8043 33.9568C11.0033 33.7279 10.3167 33.1557 10.0879 32.3547L0.132553 3.63311C-0.210734 2.60325 0.132553 1.57339 0.933554 1.00125C1.84899 0.429108 2.87884 0.429108 3.67984 1.11568L13.7496 9.24015L24.6203 0.429108C25.3069 -0.143036 26.3368 -0.143036 27.0233 0.429108L32.2871 4.7774C33.0881 5.46397 33.2025 6.72266 32.6303 7.52371C31.9437 8.3247 30.685 8.55356 29.884 7.86697L25.7646 4.54854L14.8939 13.2452C14.2073 13.8173 13.1774 13.8173 12.4909 13.2452L5.73956 7.86697L13.1774 29.2652L47.9638 1.11568Z" fill="white"/>
</svg>
